<svg width="1920" height="384" viewBox="0 0 1920 384" fill="none" xmlns="http://www.w3.org/2000/svg">
<g style="mix-blend-mode:multiply" opacity="0.2">
<path d="M586.092 232.866C491.313 416.929 223.948 403.942 147.456 211.559L87.1701 59.9373C46.4331 -42.5186 -101.189 -34.4529 -130.522 71.8312C-254.777 522.063 -893.304 521.896 -1017.32 71.5985L-1037.88 -3.04846C-1105.73 -249.415 -1451.24 -259.887 -1533.89 -18.0818L-1566.41 77.0618C-1625.31 249.37 -1836.53 312.17 -1980 200.027L603.001 200.026L586.092 232.866Z" fill="#CED2D9"/>
</g>
<g style="mix-blend-mode:multiply" opacity="0.2">
<path d="M1527.39 172.81C1456.84 32.8108 1253.94 42.0916 1196.46 187.947L1152.02 300.742C1121.3 378.705 1009.03 372.733 986.754 291.952C892.476 -49.9352 407.499 -49.524 313.8 292.522L298.67 347.755C247.396 534.932 -15.2104 542.684 -77.4373 358.859L-100.181 291.671C-144.744 160.028 -306.642 112.797 -414.999 199.827L1541 199.827L1527.39 172.81Z" fill="#CED2D9"/>
</g>
<g style="mix-blend-mode:multiply" opacity="0.2">
<path d="M1553.98 218.046C1608.2 299.725 1730.2 293.177 1775.36 206.165L1806.8 145.612C1831.11 98.7782 1899.51 103.243 1917.52 152.839C1994.92 365.897 2296.36 365.577 2373.3 152.355L2383.51 124.066C2425.27 8.35443 2586.7 2.44739 2636.81 114.798L2648.8 141.7C2684.38 221.479 2781.94 251.862 2856.52 206.39L2867 200.003L1542 200.002L1553.98 218.046Z" fill="#CED2D9"/>
</g>
<g style="mix-blend-mode:screen" opacity="0.1">
<path d="M-1609.37 172.798C-1538.77 32.7607 -1335.8 42.0477 -1278.29 187.947L-1233.81 300.75C-1203.07 378.737 -1090.76 372.761 -1068.47 291.951C-974.107 -50.0639 -488.952 -49.653 -395.171 292.522L-380.033 347.755C-328.714 534.999 -66.0169 542.758 -3.73673 358.869L18.9984 291.741C63.6034 160.04 225.569 112.781 334.001 199.827L-1623 199.827L-1609.37 172.798Z" fill="#CED2D9"/>
</g>
<g style="mix-blend-mode:screen" opacity="0.1">
<path d="M961.628 172.798C1032.23 32.7607 1235.2 42.0477 1292.71 187.947L1337.19 300.75C1367.93 378.737 1480.24 372.761 1502.53 291.951C1596.89 -50.0639 2082.05 -49.653 2175.83 292.522L2190.97 347.755C2242.29 534.999 2504.98 542.758 2567.26 358.869L2590 291.741C2634.6 160.04 2796.57 112.781 2905 199.827L948.001 199.827L961.628 172.798Z" fill="#CED2D9"/>
</g>
</svg>
