<svg width="244" height="70" viewBox="0 0 244 70" fill="none" xmlns="http://www.w3.org/2000/svg">
<path d="M100.477 16.135C103.818 16.135 107.322 17.1944 109.849 19.5576L107.648 22.9802C105.856 21.4319 103.166 20.291 100.722 20.291C95.1804 20.291 92.2468 24.284 92.2468 29.0104C92.2468 33.7369 95.2619 38.0558 100.803 38.0558C103.492 38.0558 106.263 36.752 108.137 34.8777L110.582 38.2188C108.382 40.4191 105.122 42.2933 100.64 42.2933C92.6543 42.2933 87.5204 36.589 87.5204 29.0919C87.4389 21.7578 92.8172 16.135 100.477 16.135ZM113.597 23.7136H117.916V33.4109C117.916 34.2258 117.835 35.2852 117.835 35.6111H117.916C118.161 35.1222 118.813 34.1443 119.302 33.4109L126.065 23.7136H130.466V41.8859H126.147V32.1886C126.147 31.5366 126.228 30.4773 126.228 29.9883H126.147C125.902 30.4773 125.25 31.4551 124.761 32.1886L117.998 41.8859H113.597V23.7136ZM139.43 27.5436H133.399V23.7136H149.942V27.5436H143.912V41.8859H139.43V27.5436ZM153.038 23.7136H157.357V33.4109C157.357 34.2258 157.276 35.2852 157.276 35.6111H157.357C157.602 35.1222 158.254 34.1443 158.743 33.4109L165.506 23.7136H169.907V41.8859H165.588V32.1886C165.588 31.5366 165.669 30.4773 165.669 29.9883H165.588C165.343 30.4773 164.691 31.4551 164.203 32.1886L157.439 41.8859H153.038V23.7136ZM176.426 16.5425H181.315L186.286 29.0919C186.857 30.5588 187.509 32.8405 187.509 32.8405H187.59C187.59 32.8405 188.242 30.6402 188.813 29.0919L193.783 16.5425H198.673L200.71 41.8859H196.147L195.169 27.7066C195.006 25.9953 195.169 23.7951 195.169 23.7951H195.087C195.087 23.7951 194.272 26.2398 193.702 27.7066L189.627 37.4854H185.634L181.56 27.7066C180.99 26.2398 180.175 23.7136 180.175 23.7136H180.093C180.093 23.7136 180.175 25.9953 180.093 27.7066L179.034 41.8859H174.389L176.426 16.5425ZM213.26 23.3061C218.475 23.3061 221.327 27.1362 221.327 31.9441C221.327 32.5145 221.246 33.0849 221.164 33.6554H208.615C208.859 36.8335 211.304 38.4633 214.075 38.4633C215.949 38.4633 217.823 37.6484 219.29 36.426L221.083 39.6856C219.208 41.3155 216.356 42.2933 213.749 42.2933C207.718 42.2933 203.97 37.9744 203.97 32.759C203.97 27.2177 207.8 23.3061 213.26 23.3061ZM216.764 30.5588C216.764 28.1141 215.134 26.7287 213.097 26.7287C210.815 26.7287 209.104 28.277 208.696 30.5588H216.764ZM225.239 38.2188C227.276 35.2852 227.683 30.5588 227.683 27.4621V23.7136H241.048V38.3003H243.655V46.2049H239.581V41.8859H227.276V46.2049H223.038V38.3003H225.239V38.2188ZM236.484 38.2188V27.3806H231.921V28.1955C231.921 30.9662 231.595 35.1222 229.721 38.2188H236.484ZM89.2317 52.7241H90.6985V59.4877H94.2026V52.7241H95.6694V59.4877H96.6473V62.3399H95.3434V60.7916H89.3132V52.7241H89.2317ZM100.233 54.8428C101.863 54.8428 102.759 56.0652 102.759 57.6135C102.759 57.7764 102.759 58.0209 102.678 58.1839H98.6845C98.766 59.1618 99.5809 59.7322 100.396 59.7322C100.966 59.7322 101.618 59.4877 102.026 59.0803L102.596 60.1397C102.026 60.6286 101.129 60.9546 100.314 60.9546C98.44 60.9546 97.2177 59.5692 97.2177 57.9394C97.2992 56.1466 98.44 54.8428 100.233 54.8428ZM101.374 57.206C101.374 56.4726 100.885 55.9837 100.233 55.9837C99.4994 55.9837 99.0105 56.4726 98.8475 57.206H101.374ZM103.981 55.0058H105.448V57.206H107.893V55.0058H109.36V60.7916H107.893V58.4284H105.448V60.7916H103.981V55.0058ZM112.212 56.2281H110.338V55.0058H115.553V56.2281H113.679V60.7916H112.212V56.2281ZM116.531 55.0058H117.835V55.4132C117.835 55.6577 117.835 55.8207 117.835 55.8207C118.242 55.1688 118.894 54.8428 119.709 54.8428C121.257 54.8428 122.235 56.0652 122.235 57.8579C122.235 59.7322 121.094 60.8731 119.627 60.8731C118.976 60.8731 118.405 60.5471 117.998 60.0582C117.998 60.0582 117.998 60.2212 117.998 60.5471V62.9918H116.531V55.0058ZM119.383 59.7322C120.198 59.7322 120.85 59.0803 120.85 57.9394C120.85 56.8801 120.279 56.1466 119.383 56.1466C118.65 56.1466 117.916 56.7171 117.916 57.9394C117.916 58.8358 118.405 59.7322 119.383 59.7322ZM130.221 52.6426C131.281 52.6426 132.421 52.9685 133.155 53.7019L132.421 54.7613C131.851 54.2724 131.036 53.9464 130.221 53.9464C128.428 53.9464 127.532 55.2503 127.532 56.7171C127.532 58.1839 128.51 59.5692 130.221 59.5692C131.118 59.5692 131.932 59.1618 132.584 58.5099L133.318 59.5692C132.666 60.3026 131.607 60.8731 130.14 60.8731C127.614 60.8731 125.984 59.0803 125.984 56.7171C126.065 54.4354 127.776 52.6426 130.221 52.6426ZM136.903 54.8428C138.533 54.8428 139.43 56.0652 139.43 57.6135C139.43 57.7764 139.43 58.0209 139.348 58.1839H135.355C135.437 59.1618 136.251 59.7322 137.066 59.7322C137.637 59.7322 138.289 59.4877 138.696 59.0803L139.267 60.1397C138.696 60.6286 137.8 60.9546 136.985 60.9546C135.111 60.9546 133.888 59.5692 133.888 57.9394C133.97 56.1466 135.192 54.8428 136.903 54.8428ZM138.044 57.206C138.044 56.4726 137.555 55.9837 136.903 55.9837C136.17 55.9837 135.681 56.4726 135.518 57.206H138.044ZM140.978 55.0058H142.608L143.83 58.0209C143.993 58.3469 144.075 58.7543 144.075 58.7543C144.075 58.7543 144.238 58.3469 144.319 58.0209L145.541 55.0058H147.171L147.66 60.7916H146.275L146.112 57.695C146.112 57.2875 146.112 56.7171 146.112 56.7171C146.112 56.7171 145.949 57.1245 145.786 57.532L144.645 60.0582H143.423L142.282 57.532C142.119 57.1245 141.956 56.7171 141.956 56.7171C141.956 56.7171 141.956 57.2875 141.956 57.695L141.793 60.7916H140.407L140.978 55.0058ZM151.653 54.8428C153.283 54.8428 154.179 56.0652 154.179 57.6135C154.179 57.7764 154.179 58.0209 154.098 58.1839H150.105C150.186 59.1618 151.001 59.7322 151.816 59.7322C152.387 59.7322 153.038 59.4877 153.446 59.0803L154.016 60.1397C153.446 60.6286 152.549 60.9546 151.735 60.9546C149.86 60.9546 148.638 59.5692 148.638 57.9394C148.719 56.1466 149.942 54.8428 151.653 54.8428ZM152.794 57.206C152.794 56.4726 152.305 55.9837 151.653 55.9837C150.92 55.9837 150.431 56.4726 150.268 57.206H152.794ZM155.402 55.0058H156.787V58.1024C156.787 58.3469 156.787 58.6728 156.787 58.7543C156.868 58.5914 157.031 58.2654 157.194 58.1024L159.313 55.0058H160.698V60.7916H159.313V57.695C159.313 57.4505 159.313 57.1245 159.313 57.043C159.232 57.206 159.069 57.532 158.906 57.695L156.787 60.7916H155.402V55.0058ZM156.217 52.887V52.7241H157.276V52.887C157.276 53.376 157.683 53.6205 158.009 53.6205C158.335 53.6205 158.743 53.376 158.743 52.887V52.7241H159.802V52.887C159.802 53.8649 158.906 54.4354 157.928 54.4354C156.95 54.4354 156.217 53.8649 156.217 52.887ZM162.328 55.0058H163.795V57.206H166.24V55.0058H167.707V60.7916H166.24V58.4284H163.795V60.7916H162.328V55.0058ZM172.026 54.8428C173.818 54.8428 175.204 56.0652 175.204 57.8579C175.204 59.6507 173.818 60.8731 172.026 60.8731C170.233 60.8731 168.847 59.6507 168.847 57.8579C168.847 56.1466 170.233 54.8428 172.026 54.8428ZM172.026 59.7322C173.003 59.7322 173.737 58.9988 173.737 57.9394C173.737 56.8801 172.922 56.1466 172.026 56.1466C171.048 56.1466 170.314 56.8801 170.314 57.9394C170.314 58.9988 171.048 59.7322 172.026 59.7322ZM176.345 55.0058H177.73V58.1024C177.73 58.3469 177.73 58.6728 177.73 58.7543C177.811 58.5914 177.974 58.2654 178.137 58.1024L180.256 55.0058H181.641V60.7916H180.256V57.695C180.256 57.4505 180.256 57.1245 180.256 57.043C180.175 57.206 180.012 57.532 179.849 57.695L177.73 60.7916H176.345V55.0058ZM177.159 52.887V52.7241H178.219V52.887C178.219 53.376 178.626 53.6205 178.952 53.6205C179.278 53.6205 179.686 53.376 179.686 52.887V52.7241H180.745V52.887C180.745 53.8649 179.849 54.4354 178.871 54.4354C177.893 54.4354 177.159 53.8649 177.159 52.887ZM186.612 52.7241H188.161L189.709 56.7171C189.872 57.206 190.116 57.8579 190.116 57.8579C190.116 57.8579 190.361 57.1245 190.524 56.7171L192.072 52.7241H193.62L194.272 60.7916H192.806L192.48 56.3096C192.398 55.7392 192.48 55.0873 192.48 55.0873C192.48 55.0873 192.235 55.9022 192.072 56.3096L190.768 59.4062H189.464L188.161 56.3096C187.998 55.8207 187.753 55.0873 187.753 55.0873C187.753 55.0873 187.753 55.8207 187.753 56.3096L187.427 60.7916H185.96L186.612 52.7241ZM198.347 54.8428C199.977 54.8428 200.873 56.0652 200.873 57.6135C200.873 57.7764 200.873 58.0209 200.792 58.1839H196.799C196.88 59.1618 197.695 59.7322 198.51 59.7322C199.08 59.7322 199.732 59.4877 200.14 59.0803L200.71 60.1397C200.14 60.6286 199.243 60.9546 198.428 60.9546C196.554 60.9546 195.332 59.5692 195.332 57.9394C195.413 56.1466 196.636 54.8428 198.347 54.8428ZM199.488 57.206C199.488 56.4726 198.999 55.9837 198.347 55.9837C197.614 55.9837 197.125 56.4726 196.962 57.206H199.488ZM202.177 59.6507C202.829 58.7543 202.91 57.206 202.91 56.2281V55.0058H207.148V59.6507H207.963V62.1769H206.659V60.7916H202.747V62.1769H201.444V59.6507H202.177ZM205.681 59.6507V56.1466H204.214V56.3911C204.214 57.2875 204.133 58.5913 203.481 59.5692H205.681V59.6507ZM209.022 55.0058H210.407V58.1024C210.407 58.3469 210.407 58.6728 210.407 58.7543C210.489 58.5914 210.652 58.2654 210.815 58.1024L212.934 55.0058H214.319V60.7916H212.934V57.695C212.934 57.4505 212.934 57.1245 212.934 57.043C212.852 57.206 212.689 57.532 212.526 57.695L210.407 60.7916H209.022V55.0058ZM215.867 55.0058H217.334V59.5692H219.616V55.0058H221.083V59.5692H221.898V62.1769H220.594V60.7916H215.867V55.0058ZM222.957 55.0058H224.342V58.1024C224.342 58.3469 224.342 58.6728 224.342 58.7543C224.424 58.5914 224.587 58.2654 224.75 58.1024L226.868 55.0058H228.254V60.7916H226.868V57.695C226.868 57.4505 226.868 57.1245 226.868 57.043C226.787 57.206 226.624 57.532 226.461 57.695L224.342 60.7916H222.957V55.0058ZM229.802 55.0058H231.269V57.206H233.714V55.0058H235.18V60.7916H233.714V58.4284H231.269V60.7916H229.802V55.0058ZM236.729 55.0058H238.196V56.9615H239.255C240.64 56.9615 241.455 57.6135 241.455 58.8358C241.455 59.9767 240.803 60.7101 239.255 60.7101H236.81V55.0058H236.729ZM238.929 59.8137C239.581 59.8137 239.907 59.4063 239.907 58.9173C239.907 58.3469 239.581 58.0209 238.929 58.0209H238.196V59.8952H238.929V59.8137ZM242.189 55.0058H243.655V60.7916H242.189V55.0058Z" fill="white"/>
<path d="M17.7648 65.2735C7.4156 61.6879 0 51.8276 0 40.256C0 28.6844 7.4156 18.9056 17.7648 15.3201V20.9429C10.3492 24.284 5.21537 31.6996 5.21537 40.256C5.21537 48.894 10.3492 56.3096 17.7648 59.6507V65.2735ZM59.3248 15.3201V20.9429C66.7404 24.284 71.8743 31.6996 71.8743 40.3375C71.8743 48.9755 66.7404 56.3911 59.3248 59.7322V65.355C69.674 61.7694 77.0896 51.9091 77.0896 40.419C77.0896 28.9289 69.674 18.9056 59.3248 15.3201Z" fill="white"/>
<path d="M24.936 34.7148C23.3062 34.7148 22.0023 36.0186 22.0023 37.6484C22.0023 39.2782 23.3062 40.5821 24.936 40.5821C26.5658 40.5821 27.8696 39.2782 27.8696 37.6484C27.8696 36.0186 26.5658 34.7148 24.936 34.7148Z" fill="white"/>
<path d="M28.1141 41.397C29.6624 41.397 30.8848 42.6193 30.8848 44.1676C31.1292 47.4272 33.248 50.1164 35.4482 52.1537C35.4482 52.1537 35.3766 52.2431 35.2416 52.3527L37.7299 54.5983H40.908L43.4652 52.353C43.337 52.2433 43.2713 52.1537 43.2713 52.1537C45.39 50.0349 47.4272 47.3458 47.7532 44.1676L47.8347 43.6787C49.1385 42.2119 50.8498 41.3155 52.7241 41.3155C54.5984 41.3155 56.3097 42.2119 57.6135 43.6787L57.695 44.1676C57.9395 47.4272 60.0582 50.1164 62.014 52.2352C62.014 52.2352 61.0361 53.4575 59.4878 52.3981C57.2875 50.1979 56.0652 47.9977 55.5763 44.2491V43.7602L54.6799 48.9756L59.1618 58.4284H53.7835V69.9185H51.5018V58.3469H46.1234L50.6054 48.8941L49.709 43.6787V44.1676C49.22 47.8347 47.9162 50.0349 45.7974 52.3167C45.4675 52.5311 45.1676 52.6521 44.8991 52.7086L41.9674 55.3317L43.0268 62.7473H41.7229L42.4563 69.8369H40.9895L40.2561 62.7473H38.3818L37.6484 69.8369H36.1816L36.915 62.7473H35.6112L36.6705 55.2502L33.8417 52.7191C33.5645 52.6679 33.2566 52.5456 32.922 52.3167C30.7218 50.1164 29.4994 47.9162 29.0105 44.1676H28.1956V70H25.9139V55.7392H24.1211V69.9185H21.8393V44.1676H21.0244V56.7986C19.9651 56.7986 19.1502 55.9837 19.1502 54.9243V44.1676C19.1502 42.6193 20.3725 41.397 21.9208 41.397H28.1141Z" fill="white"/>
<path d="M49.7905 37.6484C49.7905 36.0186 51.0943 34.7148 52.7241 34.7148C54.3539 34.7148 55.6577 36.0186 55.6577 37.6484C55.6577 39.2782 54.3539 40.5821 52.7241 40.5821C51.0943 40.5821 49.7905 39.2782 49.7905 37.6484Z" fill="white"/>
<path d="M36.9965 51.0942C36.9965 49.7903 38.0559 48.6495 39.4412 48.6495C40.8265 48.6495 41.8859 49.7088 41.8859 51.0942C41.8859 52.398 40.8265 53.5389 39.4412 53.5389C38.0559 53.5389 36.9965 52.398 36.9965 51.0942Z" fill="white"/>
<path d="M48.4047 34.9593H28.684V27.3807H21.1055V7.57858H28.684V0H48.4047V7.57858H55.9832V27.2992H48.4047V34.9593ZM31.2917 32.2701H45.797V24.6915H53.3755V10.1863H45.797V2.60768H31.2917V10.1863H23.7132V24.6915H31.2917V32.2701Z" fill="#FF0000"/>
</svg>
