<svg width="1920" height="576" viewBox="0 0 1920 576" fill="none" xmlns="http://www.w3.org/2000/svg">
<g style="mix-blend-mode:multiply" opacity="0.2">
<path d="M586.092 328.866C491.313 512.929 223.948 499.942 147.456 307.559L87.1701 155.937C46.4331 53.4814 -101.189 61.5471 -130.522 167.831C-254.777 618.063 -893.304 617.896 -1017.32 167.599L-1037.88 92.9515C-1105.73 -153.415 -1451.24 -163.887 -1533.89 77.9182L-1566.41 173.062C-1625.31 345.37 -1836.53 408.17 -1980 296.027L603.001 296.026L586.092 328.866Z" fill="#CED2D9"/>
</g>
<g style="mix-blend-mode:multiply" opacity="0.2">
<path d="M1527.39 268.81C1456.84 128.811 1253.94 138.092 1196.46 283.947L1152.02 396.742C1121.3 474.705 1009.03 468.733 986.754 387.952C892.476 46.0648 407.499 46.476 313.8 388.522L298.67 443.755C247.396 630.932 -15.2104 638.684 -77.4373 454.859L-100.181 387.671C-144.744 256.028 -306.642 208.797 -414.999 295.827L1541 295.827L1527.39 268.81Z" fill="#CED2D9"/>
</g>
<g style="mix-blend-mode:multiply" opacity="0.2">
<path d="M1553.98 314.046C1608.2 395.725 1730.2 389.177 1775.36 302.165L1806.8 241.612C1831.11 194.778 1899.51 199.243 1917.52 248.839C1994.92 461.897 2296.36 461.577 2373.3 248.355L2383.51 220.066C2425.27 104.354 2586.7 98.4474 2636.81 210.798L2648.8 237.7C2684.38 317.479 2781.94 347.862 2856.52 302.39L2867 296.003L1542 296.002L1553.98 314.046Z" fill="#CED2D9"/>
</g>
<g style="mix-blend-mode:screen" opacity="0.1">
<path d="M-1609.37 268.798C-1538.77 128.761 -1335.8 138.048 -1278.29 283.947L-1233.81 396.75C-1203.07 474.737 -1090.76 468.761 -1068.47 387.951C-974.107 45.9361 -488.952 46.347 -395.171 388.522L-380.033 443.755C-328.714 630.999 -66.0169 638.758 -3.73673 454.869L18.9984 387.741C63.6034 256.04 225.569 208.781 334.001 295.827L-1623 295.827L-1609.37 268.798Z" fill="#CED2D9"/>
</g>
<g style="mix-blend-mode:screen" opacity="0.1">
<path d="M961.628 268.798C1032.23 128.761 1235.2 138.048 1292.71 283.947L1337.19 396.75C1367.93 474.737 1480.24 468.761 1502.53 387.951C1596.89 45.9361 2082.05 46.347 2175.83 388.522L2190.97 443.755C2242.29 630.999 2504.98 638.758 2567.26 454.869L2590 387.741C2634.6 256.04 2796.57 208.781 2905 295.827L948.001 295.827L961.628 268.798Z" fill="#CED2D9"/>
</g>
</svg>
