<svg width="96" height="96" viewBox="0 0 96 96" fill="none" xmlns="http://www.w3.org/2000/svg">
<path d="M61 69C61 76.7981 55.1158 83 48 83C40.8842 83 35 76.7981 35 69C35 67.1067 35.8199 63.8795 37.1446 59.5059C37.6823 57.7303 38.3045 55.7608 38.9731 53.6442C39.9116 50.6732 40.9417 47.4123 41.9586 43.9908C44.3239 36.0319 46.7025 26.9371 48 17.5932C49.2975 26.9371 51.6761 36.0319 54.0414 43.9908C55.0583 47.4123 56.0884 50.6732 57.0269 53.6442C57.6955 55.7608 58.3177 57.7303 58.8554 59.5059C60.1801 63.8795 61 67.1067 61 69Z" stroke="white" stroke-width="2"/>
<path d="M0 54H29.8165C26.9634 57.9694 25.2727 62.9034 25.2727 68.25C25.2727 81.3668 35.4481 92 48 92C60.5519 92 70.7273 81.3668 70.7273 68.25C70.7273 62.9034 69.0366 57.9694 66.1835 54H96" stroke="white" stroke-width="2"/>
</svg>
