<svg width="80" height="80" viewBox="0 0 80 80" fill="none" xmlns="http://www.w3.org/2000/svg">
<mask id="path-1-inside-1" fill="white">
<path d="M63.2812 40C63.7333 56.8116 61.2469 80 55.3701 80C46.5548 80 55.3701 50.0483 39.9998 50.0483C24.6296 50.0483 33.4449 80 24.6296 80C18.7528 80 16.2664 56.8116 16.7185 40"/>
</mask>
<path d="M61.6151 40.0448C61.839 48.3699 61.3333 58.2614 60.0544 66.0337C59.4126 69.9345 58.5914 73.2019 57.619 75.4532C57.131 76.5831 56.6462 77.3581 56.2039 77.8267C55.7738 78.2823 55.5013 78.3333 55.3701 78.3333V81.6667C56.708 81.6667 57.7988 80.993 58.6278 80.1149C59.4445 79.2497 60.1147 78.0817 60.6791 76.775C61.8116 74.1531 62.6857 70.5727 63.3435 66.575C64.664 58.5502 65.1755 48.4417 64.9473 39.9552L61.6151 40.0448ZM55.3701 78.3333C54.8364 78.3333 54.4783 78.1476 54.1281 77.6942C53.7141 77.1582 53.3422 76.2656 53.0343 74.9423C52.411 72.2636 52.2262 68.7393 51.7998 64.8429C51.3906 61.1028 50.7566 57.0705 49.1221 53.9541C48.2893 52.3663 47.1662 50.9532 45.6265 49.9422C44.0756 48.9237 42.2057 48.3816 39.9998 48.3816V51.715C41.6366 51.715 42.8534 52.1089 43.7968 52.7284C44.7514 53.3553 45.5302 54.2822 46.1701 55.5024C47.4811 58.002 48.0762 61.4576 48.4863 65.2054C48.8793 68.797 49.1042 72.7605 49.7877 75.6978C50.1331 77.1825 50.6389 78.6299 51.4901 79.7319C52.4051 80.9164 53.6999 81.6667 55.3701 81.6667V78.3333ZM39.9998 48.3816C37.794 48.3816 35.9241 48.9237 34.3732 49.9422C32.8335 50.9532 31.7104 52.3663 30.8776 53.9541C29.2431 57.0705 28.6091 61.1028 28.1998 64.8429C27.7735 68.7393 27.5887 72.2636 26.9654 74.9423C26.6575 76.2656 26.2856 77.1582 25.8716 77.6942C25.5214 78.1476 25.1633 78.3333 24.6296 78.3333V81.6667C26.2998 81.6667 27.5945 80.9164 28.5096 79.7319C29.3608 78.6299 29.8665 77.1825 30.212 75.6978C30.8955 72.7605 31.1204 68.797 31.5134 65.2054C31.9235 61.4576 32.5185 58.002 33.8295 55.5024C34.4695 54.2822 35.2482 53.3553 36.2029 52.7284C37.1463 52.1089 38.3631 51.715 39.9998 51.715V48.3816ZM24.6296 78.3333C24.4984 78.3333 24.2259 78.2823 23.7958 77.8267C23.3535 77.3581 22.8687 76.5831 22.3807 75.4532C21.4082 73.2019 20.5871 69.9345 19.9452 66.0337C18.6663 58.2614 18.1607 48.3699 18.3845 40.0448L15.0524 39.9552C14.8242 48.4417 15.3357 58.5502 16.6561 66.575C17.314 70.5727 18.1881 74.1531 19.3206 76.775C19.885 78.0817 20.5551 79.2497 21.3719 80.1149C22.2009 80.993 23.2916 81.6667 24.6296 81.6667V78.3333Z" fill="white" mask="url(#path-1-inside-1)"/>
<mask id="path-3-inside-2" fill="white">
<path d="M59.3039 46.6667C59.3039 46.6667 73.8128 27.2324 73.3209 16.0037C72.8291 4.77499 62.9926 0.456261 54.6316 1.96782C46.2706 3.47937 33.7291 3.47937 25.3681 1.96782C17.007 0.456261 7.17056 4.55906 6.67873 16.0037C6.18691 27.4483 20.6957 46.6667 20.6957 46.6667"/>
</mask>
<path d="M59.3039 46.6667C60.6395 47.6637 60.6397 47.6635 60.6399 47.6631C60.6401 47.6629 60.6404 47.6625 60.6407 47.6621C60.6413 47.6612 60.6422 47.6601 60.6433 47.6587C60.6454 47.6558 60.6484 47.6517 60.6523 47.6465C60.6601 47.6361 60.6712 47.621 60.6858 47.6014C60.7148 47.5621 60.7571 47.5046 60.8119 47.4298C60.9213 47.2802 61.0805 47.0611 61.282 46.7793C61.6851 46.2158 62.2581 45.401 62.9433 44.3891C64.3125 42.3671 66.1353 39.5493 67.9452 36.3706C69.7523 33.197 71.564 29.6333 72.8964 26.1234C74.2179 22.6423 75.1236 19.0721 74.986 15.9308L71.6559 16.0766C71.7642 18.5496 71.0407 21.6195 69.7801 24.9404C68.5304 28.2325 66.8072 31.6327 65.0485 34.7213C63.2928 37.8048 61.5191 40.5473 60.1832 42.5202C59.5159 43.5057 58.9593 44.2969 58.5708 44.8401C58.3766 45.1116 58.2245 45.321 58.1217 45.4616C58.0703 45.5318 58.0312 45.5849 58.0053 45.6198C57.9924 45.6373 57.9828 45.6503 57.9766 45.6586C57.9735 45.6628 57.9713 45.6658 57.9699 45.6676C57.9692 45.6685 57.9687 45.6692 57.9685 45.6695C57.9684 45.6697 57.9683 45.6697 57.9683 45.6698C57.9683 45.6697 57.9684 45.6696 59.3039 46.6667ZM74.986 15.9308C74.7166 9.77983 71.8531 5.39577 67.8291 2.80657C63.8626 0.25441 58.8739 -0.492813 54.3351 0.327736L54.9281 3.6079C58.7503 2.91689 62.8604 3.57326 66.0254 5.60975C69.1328 7.6092 71.4335 10.9989 71.6559 16.0766L74.986 15.9308ZM54.3351 0.327736C46.1702 1.80384 33.8295 1.80384 25.6646 0.327736L25.0716 3.6079C33.6287 5.1549 46.371 5.1549 54.9281 3.6079L54.3351 0.327736ZM25.6646 0.327736C21.1415 -0.489964 16.1529 0.193364 12.1782 2.72076C8.14005 5.28847 5.28224 9.6809 5.0136 15.9321L8.34386 16.0753C8.56704 10.8818 10.8734 7.50057 13.9667 5.5336C17.1235 3.52633 21.2336 2.91404 25.0716 3.6079L25.6646 0.327736ZM5.0136 15.9321C4.87646 19.1234 5.77981 22.7178 7.10264 26.2129C8.43555 29.7347 10.2481 33.2929 12.056 36.4543C13.8667 39.6206 15.6903 42.4191 17.0601 44.4249C17.7456 45.4287 18.3189 46.2362 18.7222 46.7945C18.9239 47.0737 19.0832 47.2907 19.1928 47.439C19.2476 47.5131 19.29 47.57 19.3191 47.6089C19.3336 47.6284 19.3449 47.6434 19.3526 47.6537C19.3565 47.6589 19.3596 47.6629 19.3617 47.6658C19.3628 47.6672 19.3637 47.6684 19.3643 47.6692C19.3646 47.6696 19.3649 47.6701 19.3651 47.6703C19.3654 47.6706 19.3656 47.6709 20.6957 46.6667C22.0259 45.6625 22.026 45.6626 22.026 45.6627C22.026 45.6626 22.0259 45.6626 22.0258 45.6624C22.0256 45.6621 22.0251 45.6615 22.0244 45.6606C22.0231 45.6588 22.0209 45.6558 22.0178 45.6517C22.0116 45.6435 22.002 45.6307 21.9891 45.6135C21.9634 45.579 21.9244 45.5266 21.873 45.4572C21.7703 45.3183 21.6184 45.1112 21.4243 44.8426C21.0361 44.3052 20.4798 43.5218 19.8128 42.5451C18.4775 40.5898 16.7046 37.8684 14.9496 34.7995C13.1918 31.7258 11.4693 28.3335 10.2202 25.033C8.96091 21.7059 8.23509 18.6064 8.34386 16.0753L5.0136 15.9321Z" fill="white" mask="url(#path-3-inside-2)"/>
<path d="M28.3335 15C31.3891 11.1111 40.0002 5.83335 47.5002 4.16669" stroke="white" stroke-width="1.66667"/>
</svg>
