<svg width="96" height="96" viewBox="0 0 96 96" fill="none" xmlns="http://www.w3.org/2000/svg">
<path d="M1.67642 47.2753C1.576 47.1766 1.48331 47.0847 1.39846 47C1.48331 46.9153 1.576 46.8234 1.67642 46.7247C2.30491 46.1065 3.23547 45.2198 4.43596 44.1541C6.83787 42.0218 10.3152 39.1774 14.6109 36.3339C23.2196 30.6352 35.0241 25 48 25C60.9759 25 72.7804 30.6352 81.3891 36.3339C85.6848 39.1774 89.1621 42.0218 91.564 44.1541C92.7645 45.2198 93.6951 46.1065 94.3236 46.7247C94.424 46.8234 94.5167 46.9153 94.6015 47C94.5167 47.0847 94.424 47.1766 94.3236 47.2753C93.6951 47.8935 92.7645 48.7802 91.564 49.8459C89.1621 51.9782 85.6848 54.8226 81.3891 57.6661C72.7804 63.3648 60.9759 69 48 69C35.0241 69 23.2196 63.3648 14.6109 57.6661C10.3152 54.8226 6.83787 51.9782 4.43596 49.8459C3.23547 48.7802 2.30491 47.8935 1.67642 47.2753Z" stroke="white" stroke-width="2"/>
<path d="M70.3845 47C70.3845 59.1347 60.3782 69 47.9999 69C35.6215 69 25.6152 59.1347 25.6152 47C25.6152 34.8653 35.6215 25 47.9999 25C60.3782 25 70.3845 34.8653 70.3845 47Z" stroke="white" stroke-width="2"/>
<path d="M53.1534 47.0001C53.1534 49.7751 50.8616 52.0528 47.9995 52.0528C45.1375 52.0528 42.8457 49.7751 42.8457 47.0001C42.8457 44.2252 45.1375 41.9475 47.9995 41.9475C50.8616 41.9475 53.1534 44.2252 53.1534 47.0001Z" stroke="white" stroke-width="2"/>
</svg>
