<svg width="48" height="48" viewBox="0 0 48 48" fill="none" xmlns="http://www.w3.org/2000/svg">
<path d="M26.2433 1.7008L26.2432 1.70082L26.2463 1.70606C27.2644 3.48193 29.5492 3.97065 31.2952 2.73327C32.9639 1.63037 35.1016 2.57163 35.2798 4.52534L35.2806 4.53376L35.2816 4.54215C35.4084 5.55308 35.9758 6.42619 36.7239 6.9854C37.4649 7.53932 38.4268 7.81477 39.3591 7.55756C41.1394 7.21679 42.7725 9.01223 42.2306 10.8127L42.2272 10.8239L42.2244 10.8352C41.7345 12.7883 42.7131 14.8195 44.7546 15.3282L44.7661 15.331L44.7777 15.3333C46.5283 15.6823 47.3043 18.0112 46.016 19.4788L46.0159 19.4787L46.0082 19.4879C44.7399 21.0048 45.0022 23.2626 46.5055 24.5112L46.5154 24.5194L46.5256 24.527C47.9491 25.5912 47.797 27.9397 46.1699 28.8593C44.3875 29.6391 43.6543 31.9036 44.6566 33.6559C45.5713 35.3006 44.4533 37.444 42.4927 37.444C40.4414 37.444 38.9601 39.2234 38.9601 41.1824V41.2075L38.9626 41.2324C39.0504 42.1066 38.6139 42.9161 37.9196 43.4235C37.2246 43.9315 36.3298 44.0946 35.547 43.7479L35.547 43.7478L35.5409 43.7452C33.7513 42.9807 31.5195 43.9904 30.7695 45.7347L30.7583 45.7608L30.7501 45.7881C30.2123 47.5746 27.8806 48.1089 26.626 46.6858C25.3432 45.1583 22.8182 45.1583 21.5353 46.6857C20.2807 48.1089 17.949 47.5746 17.4112 45.7881L17.4064 45.7719L17.4004 45.7561C17.0338 44.7817 16.3506 44.0241 15.4833 43.6399C14.6154 43.2554 13.6008 43.2624 12.6137 43.7476C11.689 44.1099 10.7946 43.9621 10.1581 43.5027C9.52223 43.0438 9.10843 42.2488 9.19843 41.2355C9.45102 39.1739 7.65756 37.444 5.66861 37.444C4.65692 37.444 3.90308 36.9468 3.5047 36.2409C3.10502 35.5327 3.04581 34.5808 3.51041 33.6459C4.50899 31.8867 3.76343 29.6161 1.96599 28.8483L1.96605 28.8482L1.95475 28.8437C1.05633 28.4855 0.574517 27.7378 0.50796 26.9197C0.441085 26.0976 0.794765 25.1829 1.63521 24.5276C3.37322 23.2831 3.65254 20.9937 2.13526 19.4672C0.89611 18.0399 1.58398 15.881 3.41885 15.3251C5.38862 14.8275 6.68062 12.8329 5.92635 10.7979C5.39711 8.99992 7.03131 7.21288 8.80944 7.55896C10.8222 8.05222 12.8655 6.5641 12.8835 4.50724C13.0778 2.74323 15.2342 1.6553 16.8661 2.73329C18.6122 3.97064 20.8969 3.48192 21.9151 1.70606L21.9151 1.70607L21.9181 1.7008C22.3569 0.91341 23.2016 0.500061 24.0807 0.500061C24.9598 0.500061 25.8044 0.91341 26.2433 1.7008Z" stroke="#39404D" stroke-miterlimit="10"/>
<path d="M18.2803 19.0323C19.9371 19.0323 21.2803 17.6892 21.2803 16.0323C21.2803 14.3755 19.9371 13.0323 18.2803 13.0323C16.6234 13.0323 15.2803 14.3755 15.2803 16.0323C15.2803 17.6892 16.6234 19.0323 18.2803 19.0323Z" stroke="#39404D" stroke-miterlimit="10"/>
<path d="M17.5303 37.4963C19.6013 37.4963 21.2803 35.8174 21.2803 33.7463C21.2803 31.6753 19.6013 29.9963 17.5303 29.9963C15.4592 29.9963 13.7803 31.6753 13.7803 33.7463C13.7803 35.8174 15.4592 37.4963 17.5303 37.4963Z" stroke="#39404D" stroke-miterlimit="10"/>
<path d="M33.2705 29.5291C36.5842 29.5291 39.2705 26.8428 39.2705 23.529C39.2705 20.2153 36.5842 17.5291 33.2705 17.5291C29.9568 17.5291 27.2705 20.2153 27.2705 23.529C27.2705 26.8428 29.9568 29.5291 33.2705 29.5291Z" stroke="#39404D" stroke-miterlimit="10"/>
</svg>
