<svg width="48" height="48" viewBox="0 0 48 48" fill="none" xmlns="http://www.w3.org/2000/svg">
<path d="M2.47145 46.4428C2.39946 46.3233 2.30847 46.1658 2.20527 45.9734C1.94171 45.482 1.59962 44.7643 1.29107 43.8678C0.673498 42.0735 0.1952 39.5779 0.734265 36.7485L0.734858 36.7452C1.9255 30.2648 7.60023 27.8999 11.4119 29.0861L11.4119 29.0861L11.418 29.088C12.5397 29.4214 13.6013 29.979 14.6598 30.6055C15.0108 30.8132 15.3659 31.0315 15.7229 31.2509C16.4215 31.6804 17.1277 32.1144 17.8249 32.4831C18.8921 33.0474 20.0083 33.4997 21.2016 33.6144C22.4062 33.7303 23.6577 33.4992 24.9861 32.7496C27.1824 31.5497 28.0036 29.3705 28.1494 27.1082C28.2949 24.8504 27.7787 22.4213 27.2119 20.5456C26.6403 18.6541 24.5391 13.8596 22.6028 9.58022C21.6303 7.43106 20.6929 5.39802 19.9988 3.9024C19.6517 3.15454 19.3653 2.54094 19.1657 2.11424C19.1389 2.05702 19.1137 2.00316 19.0901 1.95279L22.9972 0.615338L27.1555 9.03393L27.4482 9.62645L27.9385 9.18401L27.9385 9.18399L27.9386 9.18389L27.9388 9.18369L27.9396 9.18296L27.9463 9.17704C27.9527 9.17139 27.963 9.16241 27.977 9.15035C28.0051 9.12622 28.0482 9.08979 28.1056 9.04308C28.2204 8.94963 28.3919 8.81528 28.614 8.65623C29.0587 8.33772 29.7026 7.92247 30.4957 7.5383C32.0869 6.76749 34.2408 6.13935 36.582 6.62021C40.1856 7.36034 42.9015 9.26479 44.7244 11.9808C46.553 14.7052 47.5 18.2735 47.5 22.3505C47.5 31.7897 42.2303 42.2536 32.1995 44.9847C28.0129 46.1061 24.5239 45.7275 21.5253 44.4033C18.5147 43.0739 15.9623 40.7752 13.6889 37.9989C12.8237 36.9396 11.7803 36.2643 10.6999 36.0451C9.61036 35.8241 8.51831 36.076 7.60911 36.8083C5.87118 38.2081 4.90393 41.2519 5.5251 45.8359L2.47145 46.4428Z" stroke="#39404D" stroke-miterlimit="10"/>
<path d="M42.279 27.4592C42.279 27.4592 40.6622 36.5272 31.0859 40.9973" stroke="#39404D" stroke-miterlimit="10"/>
</svg>
