<svg width="48" height="48" viewBox="0 0 48 48" fill="none" xmlns="http://www.w3.org/2000/svg">
<path d="M34.901 12.7551C34.901 8.4344 30.0066 5 23.9998 5C17.993 5 13.0986 8.4344 13.0986 12.7551" stroke="#39404D" stroke-miterlimit="10"/>
<path d="M7.09193 24.831C10.2865 24.831 12.8762 23.1446 12.8762 21.0642C12.8762 18.9839 10.2865 17.2975 7.09193 17.2975C3.89734 17.2975 1.30762 18.9839 1.30762 21.0642C1.30762 23.1446 3.89734 24.831 7.09193 24.831Z" stroke="#39404D" stroke-miterlimit="10"/>
<path d="M40.9081 24.831C37.7135 24.831 35.1238 23.1446 35.1238 21.0642C35.1238 18.9839 37.7135 17.2975 40.9081 17.2975C44.1027 17.2975 46.6924 18.9839 46.6924 21.0642C46.6924 23.1446 44.1027 24.831 40.9081 24.831Z" stroke="#39404D" stroke-miterlimit="10"/>
<path d="M24.0002 26.6034C22.2204 26.6034 20.6631 25.1631 20.6631 23.2798V19.6238C20.6631 17.8512 22.1092 16.3002 24.0002 16.3002C25.78 16.3002 27.3373 17.7404 27.3373 19.6238V23.2798C27.3373 25.1631 25.78 26.6034 24.0002 26.6034Z" stroke="#39404D" stroke-miterlimit="10"/>
<path d="M24 43V26.382" stroke="#39404D" stroke-miterlimit="10"/>
<path d="M18.5494 33.3614C18.5494 33.3614 17.7707 32.5859 17.5482 28.5976C17.3258 24.6093 17.3258 18.516 16.7696 17.0757C16.2134 15.6355 13.4325 13.8629 10.874 18.1836" stroke="#39404D" stroke-miterlimit="10"/>
<path d="M29.4506 33.3614C29.4506 33.3614 30.2293 32.5859 30.4518 28.5976C30.6742 24.6093 30.6742 18.516 31.2304 17.0757C31.7866 15.6355 34.5675 13.8629 37.126 18.1836" stroke="#39404D" stroke-miterlimit="10"/>
<mask id="path-8-inside-1" fill="white">
<path d="M1.86388 19.4024C-0.0271398 18.4053 -1.69569 12.7551 3.30996 9.76389C6.86954 7.76973 12.0977 9.65311 16.9921 6.77264"/>
</mask>
<path d="M3.30996 9.76389L2.82121 8.89147L2.80901 8.89831L2.797 8.90548L3.30996 9.76389ZM2.33029 18.5178C2.11841 18.4061 1.78313 18.0748 1.48959 17.4635C1.20771 16.8765 1.01234 16.1259 1.00056 15.3164C0.977573 13.7364 1.64826 11.9218 3.82293 10.6223L2.797 8.90548C-0.0339858 10.5972 -1.03185 13.1033 -0.999225 15.3455C-0.983195 16.4471 -0.719709 17.4829 -0.313313 18.3292C0.0814216 19.1512 0.663852 19.9001 1.39748 20.2869L2.33029 18.5178ZM3.79872 10.6363C5.32802 9.77956 7.23442 9.74389 9.70894 9.59892C12.089 9.45948 14.8306 9.20503 17.4993 7.63447L16.4849 5.91082C14.2591 7.22072 11.9395 7.46481 9.59197 7.60234C7.33893 7.73434 4.85147 7.75406 2.82121 8.89147L3.79872 10.6363Z" fill="#39404D" mask="url(#path-8-inside-1)"/>
<mask id="path-10-inside-2" fill="white">
<path d="M46.1361 19.4024C48.0271 18.4053 49.6957 12.7551 44.69 9.76389C41.1305 7.76973 35.9023 9.65311 31.0079 6.77264"/>
</mask>
<path d="M44.69 9.76389L45.1788 8.89147L45.191 8.89831L45.203 8.90548L44.69 9.76389ZM45.6697 18.5178C45.8816 18.4061 46.2169 18.0748 46.5104 17.4635C46.7923 16.8765 46.9877 16.1259 46.9994 15.3164C47.0224 13.7364 46.3517 11.9218 44.1771 10.6223L45.203 8.90548C48.034 10.5972 49.0319 13.1033 48.9992 15.3455C48.9832 16.4471 48.7197 17.4829 48.3133 18.3292C47.9186 19.1512 47.3361 19.9001 46.6025 20.2869L45.6697 18.5178ZM44.2013 10.6363C42.672 9.77956 40.7656 9.74389 38.2911 9.59892C35.911 9.45948 33.1694 9.20503 30.5007 7.63447L31.5151 5.91082C33.7409 7.22072 36.0605 7.46481 38.408 7.60234C40.6611 7.73434 43.1485 7.75406 45.1788 8.89147L44.2013 10.6363Z" fill="#39404D" mask="url(#path-10-inside-2)"/>
</svg>
