<svg width="48" height="48" viewBox="0 0 48 48" fill="none" xmlns="http://www.w3.org/2000/svg">
<mask id="path-1-inside-1" fill="white">
<path d="M0 17.5361C0 10.2357 4.95 4 12 4C19.8 4 24 9.62738 24 9.62738C24 9.62738 28.2 4 36 4C43.05 4 48 10.2357 48 17.5361C48 25.597 42 36.5475 24 44C14.7 40.1977 8.7 35.4829 4.95 30.616"/>
</mask>
<path d="M24 9.62738L23.1986 10.2255L24 11.2993L24.8014 10.2255L24 9.62738ZM24 44L23.6216 44.9256L24.0024 45.0813L24.3825 44.9239L24 44ZM1 17.5361C1 10.638 5.64122 5 12 5V3C4.25879 3 -1 9.83347 -1 17.5361H1ZM12 5C15.6479 5 18.4525 6.31362 20.3544 7.63495C21.306 8.29605 22.027 8.95622 22.5067 9.44707C22.7463 9.69216 22.9247 9.894 23.0406 10.0312C23.0986 10.0997 23.1408 10.152 23.1672 10.1853C23.1804 10.202 23.1896 10.2139 23.1949 10.2207C23.1975 10.2241 23.1991 10.2262 23.1997 10.227C23.2001 10.2275 23.2001 10.2275 23.1999 10.2273C23.1998 10.2271 23.1997 10.2269 23.1994 10.2266C23.1993 10.2265 23.1991 10.2262 23.1991 10.2261C23.1988 10.2258 23.1986 10.2255 24 9.62738C24.8014 9.02925 24.8011 9.02888 24.8008 9.02849C24.8007 9.02833 24.8004 9.02792 24.8002 9.0276C24.7997 9.02696 24.7991 9.02624 24.7985 9.02543C24.7973 9.02381 24.7958 9.02185 24.7941 9.01955C24.7906 9.01496 24.7861 9.00902 24.7805 9.00178C24.7694 8.9873 24.7541 8.96761 24.7346 8.94305C24.6957 8.89393 24.6401 8.82531 24.568 8.73999C24.4238 8.56941 24.2131 8.33161 23.937 8.04913C23.3855 7.48484 22.569 6.73817 21.4956 5.99243C19.3475 4.50006 16.1521 3 12 3V5ZM24 9.62738C24.8014 10.2255 24.8012 10.2258 24.8009 10.2261C24.8009 10.2262 24.8007 10.2265 24.8006 10.2266C24.8003 10.2269 24.8002 10.2271 24.8001 10.2273C24.7999 10.2275 24.7999 10.2275 24.8003 10.227C24.8009 10.2262 24.8025 10.2241 24.8051 10.2207C24.8104 10.2139 24.8196 10.202 24.8328 10.1853C24.8592 10.152 24.9014 10.0997 24.9594 10.0312C25.0753 9.894 25.2537 9.69216 25.4933 9.44707C25.973 8.95622 26.694 8.29605 27.6456 7.63495C29.5475 6.31362 32.3521 5 36 5V3C31.8479 3 28.6525 4.50006 26.5044 5.99243C25.431 6.73817 24.6145 7.48484 24.063 8.04913C23.7869 8.33161 23.5762 8.56941 23.432 8.73999C23.3599 8.82531 23.3043 8.89393 23.2654 8.94305C23.2459 8.96761 23.2306 8.9873 23.2195 9.00178C23.2139 9.00902 23.2094 9.01496 23.2059 9.01955C23.2042 9.02185 23.2027 9.02381 23.2015 9.02543C23.2009 9.02624 23.2003 9.02696 23.1998 9.0276C23.1996 9.02792 23.1993 9.02833 23.1992 9.02849C23.1989 9.02888 23.1986 9.02925 24 9.62738ZM36 5C42.3588 5 47 10.638 47 17.5361H49C49 9.83347 43.7412 3 36 3V5ZM47 17.5361C47 25.0626 41.3804 35.7217 23.6175 43.0761L24.3825 44.9239C42.6196 37.3733 49 26.1314 49 17.5361H47ZM24.3784 43.0744C15.2076 39.3249 9.36397 34.7062 5.74214 30.0056L4.15787 31.2263C8.03603 36.2596 14.1924 41.0706 23.6216 44.9256L24.3784 43.0744Z" fill="#39404D" mask="url(#path-1-inside-1)"/>
<path d="M0 24.0761H10.8L13.8 15.1027L19.2 32.7453L22.05 24.0761H34.95" stroke="#39404D" stroke-miterlimit="10"/>
</svg>
