<svg width="48" height="48" viewBox="0 0 48 48" fill="none" xmlns="http://www.w3.org/2000/svg">
<mask id="path-1-inside-1" fill="white">
<path d="M10.0595 8.54121C10.0595 8.54121 14.4227 -2.26876 28.0943 0.433733C38.857 2.68581 43.2202 17.2492 33.912 28.2094C25.04 38.5689 25.04 44.124 21.6948 46.5263C15.2954 50.8803 8.7505 45.0249 10.2049 36.3168"/>
</mask>
<path d="M28.0943 0.433733L28.2991 -0.545128L28.2882 -0.547284L28.0943 0.433733ZM33.912 28.2094L34.6715 28.8598L34.6742 28.8567L33.912 28.2094ZM21.6948 46.5263L22.2574 47.353L22.2678 47.3459L22.2781 47.3385L21.6948 46.5263ZM10.0595 8.54121C10.9868 8.91551 10.9866 8.916 10.9864 8.91645C10.9864 8.91654 10.9862 8.91695 10.9861 8.91715C10.986 8.91753 10.9859 8.91775 10.9858 8.91782C10.9858 8.91794 10.986 8.91743 10.9865 8.91629C10.9874 8.91401 10.9894 8.90922 10.9925 8.90201C10.9986 8.88759 11.0091 8.8635 11.0239 8.83048C11.0536 8.76443 11.1009 8.66277 11.167 8.53132C11.2994 8.26821 11.5063 7.88711 11.7967 7.43411C12.3787 6.52629 13.2886 5.34166 14.5953 4.23801C17.1768 2.05769 21.3802 0.125888 27.9004 1.41475L28.2882 -0.547284C21.1368 -1.96091 16.3228 0.161019 13.3048 2.71007C11.8118 3.9711 10.7763 5.32005 10.113 6.35465C9.78077 6.87286 9.53998 7.31517 9.38029 7.63268C9.30039 7.79154 9.24063 7.91949 9.19974 8.01046C9.17928 8.05596 9.16353 8.09224 9.15233 8.11856C9.14672 8.13172 9.14226 8.1424 9.1389 8.15049C9.13723 8.15453 9.13583 8.15793 9.13471 8.16067C9.13414 8.16204 9.13365 8.16325 9.13323 8.16429C9.13302 8.16481 9.13275 8.16547 9.13265 8.16573C9.1324 8.16635 9.13217 8.16692 10.0595 8.54121ZM27.8895 1.41253C32.8388 2.44817 36.3616 6.31672 37.5575 11.2898C38.7521 16.2578 37.6068 22.3141 33.1498 27.562L34.6742 28.8567C39.5254 23.1445 40.8527 16.4391 39.502 10.8222C38.1526 5.21059 34.1125 0.671378 28.2991 -0.545068L27.8895 1.41253ZM33.1524 27.5589C28.6511 32.815 26.3919 36.8651 24.8407 39.8962C24.0565 41.4284 23.4955 42.6119 22.9087 43.5951C22.3354 44.5558 21.7923 45.2251 21.1115 45.714L22.2781 47.3385C23.2699 46.6263 23.9813 45.7004 24.6261 44.6201C25.2573 43.5624 25.878 42.2592 26.621 40.8074C28.1241 37.8705 30.3009 33.9633 34.6715 28.8598L33.1524 27.5589ZM21.1323 45.6995C18.2886 47.6343 15.5613 47.2579 13.6698 45.5731C11.7249 43.8407 10.5079 40.5732 11.1913 36.4816L9.21858 36.1521C8.44755 40.7685 9.77571 44.7828 12.3395 47.0665C14.9568 49.3979 18.7016 49.7723 22.2574 47.353L21.1323 45.6995Z" fill="#39404D" mask="url(#path-1-inside-1)"/>
<path d="M16.8957 23.7054C16.8957 23.7054 18.2047 21.6034 15.5867 17.6998C11.3689 11.6943 19.5137 1.18458 28.0947 7.34025C37.403 13.9463 28.6765 25.9574 25.7677 30.6117C23.586 34.0649 20.3863 35.266 18.3501 35.266" stroke="#39404D" stroke-miterlimit="10"/>
<path d="M21.2588 26.8583C21.2588 26.8583 27.9491 19.051 26.3493 12.5951" stroke="#39404D" stroke-miterlimit="10"/>
</svg>
