<svg width="48" height="48" viewBox="0 0 48 48" fill="none" xmlns="http://www.w3.org/2000/svg">
<path d="M15.6621 34.5046L16.2371 40.6804C16.2371 40.6804 17.8184 46.9999 23.8559 46.9999C29.8934 46.9999 31.7621 42.4039 32.0496 40.5368L32.4809 35.2227" stroke="#39404D" stroke-miterlimit="10"/>
<path d="M33.1998 23.0147L34.3498 8.36498C34.3498 8.36498 34.4936 3.769 34.3498 2.76363C34.2061 1.18376 31.7623 -0.252347 29.7498 2.76377C29.0311 0.75289 26.1561 0.752795 25.4373 2.18906C24.7186 0.75282 22.1311 0.609266 21.4123 3.19451C20.1186 2.04551 18.2498 2.18913 17.3873 4.48713C15.8061 3.19451 13.7936 4.05625 13.6498 5.77975C13.5061 7.50324 13.6498 10.3757 13.6498 10.3757L14.6561 23.0147" stroke="#39404D" stroke-miterlimit="10"/>
<path d="M17.8184 14.2536C17.8184 14.2536 21.8434 13.6791 23.1371 17.4133" stroke="#39404D" stroke-miterlimit="10"/>
<path d="M26.1559 26.8926C26.1559 26.8926 22.7059 24.7382 24.1434 21.004" stroke="#39404D" stroke-miterlimit="10"/>
<path d="M13.65 10.2322C11.7812 10.2322 9.9125 11.3812 9.19375 13.2483L5.8875 21.2913V34.2175L1 47" stroke="#39404D" stroke-miterlimit="10"/>
<path d="M12.9316 46.9998L15.6629 34.5045L20.4066 20.142C20.6941 19.4239 20.2629 18.5622 19.6879 18.1313C18.9691 17.7004 17.9629 17.9877 17.5316 18.7058L11.4941 28.185" stroke="#39404D" stroke-miterlimit="10"/>
<path d="M34.2061 10.2322C36.2186 10.2322 37.9436 11.3812 38.8061 13.2483L42.1123 21.2913V34.2175L46.9998 47" stroke="#39404D" stroke-miterlimit="10"/>
<path d="M34.9247 46.9998L32.1935 34.5045L27.5935 20.142C27.306 19.4239 27.7372 18.5622 28.3122 18.1313C29.031 17.7004 30.0372 17.9877 30.4685 18.7058L36.506 28.185" stroke="#39404D" stroke-miterlimit="10"/>
</svg>
