<svg width="48" height="48" viewBox="0 0 48 48" fill="none" xmlns="http://www.w3.org/2000/svg">
<path d="M24.1711 32.9598C31.1772 32.9598 36.8568 27.2613 36.8568 20.2318C36.8568 13.2024 31.1772 7.50385 24.1711 7.50385C17.1649 7.50385 11.4854 13.2024 11.4854 20.2318C11.4854 27.2613 17.1649 32.9598 24.1711 32.9598Z" stroke="#39404D" stroke-miterlimit="10"/>
<path d="M47.4996 7.16C47.4996 9.73522 45.4193 11.82 42.8567 11.82C40.2941 11.82 38.2139 9.73522 38.2139 7.16C38.2139 4.58478 40.2941 2.5 42.8567 2.5C45.4193 2.5 47.4996 4.58478 47.4996 7.16Z" stroke="#39404D" stroke-miterlimit="10"/>
<path d="M6.35714 14.04C6.35714 15.6653 5.04441 16.98 3.42857 16.98C1.81273 16.98 0.5 15.6653 0.5 14.04C0.5 12.4147 1.81273 11.1 3.42857 11.1C5.04441 11.1 6.35714 12.4147 6.35714 14.04Z" stroke="#39404D" stroke-miterlimit="10"/>
<path d="M30.3571 17.48C30.3571 19.1053 29.0444 20.42 27.4286 20.42C25.8127 20.42 24.5 19.1053 24.5 17.48C24.5 15.8547 25.8127 14.54 27.4286 14.54C29.0444 14.54 30.3571 15.8547 30.3571 17.48Z" stroke="#39404D" stroke-miterlimit="10"/>
<path d="M28.6433 41.56C28.6433 43.1853 27.3305 44.5 25.7147 44.5C24.0989 44.5 22.7861 43.1853 22.7861 41.56C22.7861 39.9347 24.0989 38.62 25.7147 38.62C27.3305 38.62 28.6433 39.9347 28.6433 41.56Z" stroke="#39404D" stroke-miterlimit="10"/>
<path d="M23.3143 28.832C19.0286 28.832 15.7715 25.392 15.7715 21.264" stroke="#39404D" stroke-miterlimit="10"/>
<path d="M34.7998 13.8678L39.4284 10.4278" stroke="#39404D" stroke-miterlimit="10"/>
<path d="M25.1998 38.4642L24.6855 32.6161" stroke="#39404D" stroke-miterlimit="10"/>
<path d="M6.34277 15.244L11.8285 16.964" stroke="#39404D" stroke-miterlimit="10"/>
</svg>
