<svg width="48" height="48" viewBox="0 0 48 48" fill="none" xmlns="http://www.w3.org/2000/svg">
<path d="M0.83821 23.6377C0.788002 23.5883 0.741654 23.5423 0.699233 23.5C0.741654 23.4577 0.788002 23.4117 0.83821 23.3623C1.15246 23.0532 1.61774 22.6099 2.21798 22.077C3.41894 21.0109 5.15759 19.5887 7.30543 18.1669C11.6098 15.3176 17.5121 12.5 24 12.5C30.4879 12.5 36.3902 15.3176 40.6946 18.1669C42.8424 19.5887 44.5811 21.0109 45.782 22.077C46.3823 22.6099 46.8475 23.0532 47.1618 23.3623C47.212 23.4117 47.2583 23.4577 47.3008 23.5C47.2583 23.5423 47.212 23.5883 47.1618 23.6377C46.8475 23.9468 46.3823 24.3901 45.782 24.923C44.5811 25.9891 42.8424 27.4113 40.6946 28.8331C36.3902 31.6824 30.4879 34.5 24 34.5C17.5121 34.5 11.6098 31.6824 7.30543 28.8331C5.15759 27.4113 3.41894 25.9891 2.21798 24.923C1.61774 24.3901 1.15246 23.9468 0.83821 23.6377Z" stroke="#39404D"/>
<path d="M35.1922 23.5C35.1922 29.5673 30.1891 34.5 23.9999 34.5C17.8107 34.5 12.8076 29.5673 12.8076 23.5C12.8076 17.4327 17.8107 12.5 23.9999 12.5C30.1891 12.5 35.1922 17.4327 35.1922 23.5Z" stroke="#39404D"/>
<path d="M26.5767 23.5C26.5767 24.8875 25.4308 26.0263 23.9998 26.0263C22.5687 26.0263 21.4229 24.8875 21.4229 23.5C21.4229 22.1125 22.5687 20.9737 23.9998 20.9737C25.4308 20.9737 26.5767 22.1125 26.5767 23.5Z" stroke="#39404D"/>
</svg>
