<svg width="48" height="48" viewBox="0 0 48 48" fill="none" xmlns="http://www.w3.org/2000/svg">
<path d="M46.5 25.4117C46.5 37.6022 36.435 47.5 24 47.5C11.565 47.5 1.5 37.6022 1.5 25.4117C1.5 13.2212 11.565 3.32349 24 3.32349C36.435 3.32349 46.5 13.2212 46.5 25.4117Z" stroke="#39404D"/>
<path d="M9.0498 27.1058C9.0498 24.4234 11.2061 22.1646 14.0811 22.1646C16.9561 22.1646 19.1123 24.2823 19.1123 27.1058" stroke="#39404D" stroke-miterlimit="10"/>
<mask id="path-3-outside-1" maskUnits="userSpaceOnUse" x="24" y="0.411743" width="6" height="12" fill="black">
<rect fill="white" x="24" y="0.411743" width="6" height="12"/>
<path d="M24 1.41174C26.7312 1.41174 28.8875 3.52939 28.8875 6.35292C28.8875 9.17645 26.7312 11.1529 24 11.1529"/>
</mask>
<path d="M24 2.41174C26.177 2.41174 27.8875 4.07966 27.8875 6.35292H29.8875C29.8875 2.97912 27.2855 0.411743 24 0.411743V2.41174ZM27.8875 6.35292C27.8875 8.58805 26.2158 10.1529 24 10.1529V12.1529C27.2467 12.1529 29.8875 9.76484 29.8875 6.35292H27.8875Z" fill="#39404D" mask="url(#path-3-outside-1)"/>
<path d="M28.8877 27.1058C28.8877 24.4234 31.0439 22.1646 33.9189 22.1646C36.7939 22.1646 38.9502 24.2823 38.9502 27.1058" stroke="#39404D" stroke-miterlimit="10"/>
<path d="M19.1123 34.3059C19.1123 36.9883 21.2686 39.2471 24.1436 39.2471C27.0186 39.2471 29.1748 37.1294 29.1748 34.3059" stroke="#39404D" stroke-miterlimit="10"/>
</svg>
