<svg width="48" height="48" viewBox="0 0 48 48" fill="none" xmlns="http://www.w3.org/2000/svg">
<mask id="path-1-inside-1" fill="white">
<path d="M37.9688 24C38.2401 34.087 36.7482 48 33.2221 48C27.933 48 33.2221 30.029 24 30.029C14.7779 30.029 20.067 48 14.7779 48C11.2518 48 9.75994 34.087 10.0312 24"/>
</mask>
<path d="M36.9692 24.0269C37.1035 29.022 36.8001 34.9568 36.0328 39.6202C35.6476 41.9607 35.155 43.9212 34.5715 45.2719C34.2787 45.9499 33.9878 46.4149 33.7224 46.696C33.4644 46.9694 33.3009 47 33.2221 47V49C34.0249 49 34.6794 48.5958 35.1768 48.0689C35.6668 47.5498 36.0689 46.849 36.4075 46.065C37.087 44.4919 37.6115 42.3436 38.0062 39.945C38.7985 35.1301 39.1054 29.065 38.9685 23.9731L36.9692 24.0269ZM33.2221 47C32.9019 47 32.6871 46.8885 32.4769 46.6165C32.2285 46.2949 32.0054 45.7594 31.8207 44.9654C31.4467 43.3582 31.3358 41.2436 31.08 38.9057C30.8344 36.6617 30.454 34.2423 29.4733 32.3725C28.9737 31.4198 28.2998 30.5719 27.376 29.9653C26.4454 29.3542 25.3235 29.029 24 29.029V31.029C24.982 31.029 25.7121 31.2653 26.2782 31.6371C26.851 32.0132 27.3182 32.5693 27.7022 33.3014C28.4888 34.8012 28.8458 36.8746 29.0919 39.1233C29.3277 41.2782 29.4626 43.6563 29.8727 45.4187C30.08 46.3095 30.3834 47.1779 30.8942 47.8391C31.4432 48.5499 32.22 49 33.2221 49V47ZM24 29.029C22.6765 29.029 21.5546 29.3542 20.624 29.9653C19.7002 30.5719 19.0263 31.4198 18.5267 32.3725C17.546 34.2423 17.1656 36.6617 16.92 38.9057C16.6642 41.2436 16.5533 43.3582 16.1793 44.9654C15.9946 45.7594 15.7715 46.2949 15.5231 46.6165C15.3129 46.8885 15.0981 47 14.7779 47V49C15.78 49 16.5568 48.5499 17.1058 47.8391C17.6166 47.1779 17.92 46.3095 18.1273 45.4187C18.5374 43.6563 18.6723 41.2782 18.9081 39.1233C19.1542 36.8746 19.5112 34.8012 20.2978 33.3014C20.6818 32.5693 21.149 32.0132 21.7218 31.6371C22.2879 31.2653 23.018 31.029 24 31.029V29.029ZM14.7779 47C14.6991 47 14.5356 46.9694 14.2776 46.696C14.0122 46.4149 13.7213 45.9499 13.4285 45.2719C12.845 43.9212 12.3524 41.9607 11.9672 39.6202C11.1999 34.9568 10.8965 29.022 11.0308 24.0269L9.03154 23.9731C8.89461 29.065 9.20151 35.1301 9.99378 39.945C10.3885 42.3436 10.913 44.4919 11.5925 46.065C11.9311 46.849 12.3332 47.5498 12.8232 48.0689C13.3206 48.5958 13.9751 49 14.7779 49V47Z" fill="#39404D" mask="url(#path-1-inside-1)"/>
<mask id="path-3-inside-2" fill="white">
<path d="M35.5825 28C35.5825 28 44.2878 16.3394 43.9927 9.6022C43.6976 2.86498 37.7957 0.273744 32.7791 1.18068C27.7625 2.08761 20.2375 2.08761 15.2209 1.18068C10.2043 0.273744 4.30243 2.73542 4.00734 9.6022C3.71224 16.469 12.4175 28 12.4175 28"/>
</mask>
<path d="M35.5825 28C36.3838 28.5982 36.3839 28.5981 36.3841 28.5979C36.3842 28.5977 36.3843 28.5975 36.3845 28.5972C36.3849 28.5967 36.3854 28.596 36.3861 28.5952C36.3873 28.5935 36.3892 28.591 36.3915 28.5879C36.3961 28.5816 36.4028 28.5726 36.4116 28.5608C36.429 28.5372 36.4544 28.5028 36.4872 28.4579C36.5529 28.3681 36.6484 28.2366 36.7693 28.0676C37.0111 27.7295 37.355 27.2406 37.7661 26.6335C38.5876 25.4203 39.6813 23.7296 40.7672 21.8224C41.8515 19.9182 42.9385 17.78 43.738 15.674C44.5308 13.5853 45.0743 11.4433 44.9917 9.55845L42.9936 9.64596C43.0586 11.1298 42.6245 12.9717 41.8682 14.9642C41.1183 16.9395 40.0844 18.9796 39.0292 20.8327C37.9758 22.6829 36.9115 24.3284 36.11 25.5121C35.7096 26.1034 35.3757 26.5781 35.1426 26.9041C35.026 27.067 34.9348 27.1926 34.8731 27.2769C34.8423 27.3191 34.8188 27.3509 34.8033 27.3719C34.7955 27.3824 34.7898 27.3902 34.7861 27.3952C34.7842 27.3977 34.7829 27.3995 34.782 27.4006C34.7816 27.4011 34.7813 27.4015 34.7812 27.4017C34.7811 27.4018 34.7811 27.4018 34.7811 27.4019C34.7811 27.4018 34.7811 27.4018 35.5825 28ZM44.9917 9.55845C44.8301 5.86789 43.1119 3.23745 40.6975 1.68393C38.3177 0.152634 35.3244 -0.2957 32.6012 0.19663L32.957 2.16473C35.2503 1.75012 37.7163 2.14394 39.6153 3.36584C41.4798 4.56551 42.8602 6.5993 42.9936 9.64596L44.9917 9.55845ZM32.6012 0.19663C27.7022 1.08229 20.2978 1.08229 15.3988 0.19663L15.043 2.16473C20.1773 3.09293 27.8227 3.09293 32.957 2.16473L32.6012 0.19663ZM15.3988 0.19663C12.685 -0.293991 9.69182 0.116006 7.30699 1.63245C4.88413 3.17307 3.16944 5.80853 3.00826 9.55927L5.00641 9.64514C5.14032 6.5291 6.52413 4.50033 8.38015 3.32015C10.2742 2.11579 12.7402 1.74841 15.043 2.16473L15.3988 0.19663ZM3.00826 9.55927C2.92597 11.474 3.46798 13.6307 4.26168 15.7278C5.06143 17.8408 6.14895 19.9757 7.2337 21.8726C8.32012 23.7723 9.41426 25.4514 10.2361 26.6549C10.6474 27.2572 10.9915 27.7417 11.2334 28.0767C11.3545 28.2442 11.45 28.3744 11.5158 28.4634C11.5487 28.5078 11.5741 28.542 11.5916 28.5654C11.6003 28.577 11.607 28.586 11.6117 28.5922C11.614 28.5953 11.6158 28.5978 11.6171 28.5995C11.6178 28.6003 11.6183 28.601 11.6187 28.6015C11.6189 28.6018 11.6191 28.602 11.6192 28.6022C11.6193 28.6024 11.6194 28.6025 12.4175 28C13.2156 27.3975 13.2157 27.3976 13.2157 27.3976C13.2157 27.3975 13.2157 27.3975 13.2156 27.3974C13.2155 27.3972 13.2152 27.3969 13.2148 27.3963C13.214 27.3952 13.2126 27.3935 13.2108 27.391C13.2071 27.3861 13.2013 27.3784 13.1936 27.3681C13.1781 27.3474 13.1547 27.3159 13.1239 27.2743C13.0623 27.191 12.9711 27.0667 12.8547 26.9055C12.6217 26.5831 12.288 26.1131 11.8878 25.527C11.0866 24.3539 10.0229 22.7211 8.96985 20.8797C7.91516 19.0354 6.88169 17.0001 6.13219 15.0198C5.37665 13.0235 4.94115 11.1638 5.00641 9.64514L3.00826 9.55927Z" fill="#39404D" mask="url(#path-3-inside-2)"/>
<path d="M17 9C18.8333 6.66667 24 3.5 28.5 2.5" stroke="#39404D"/>
</svg>
