<svg width="48" height="48" viewBox="0 0 48 48" fill="none" xmlns="http://www.w3.org/2000/svg">
<path d="M24.0001 43H11.8708C10.1544 43 8.78125 41.5882 8.78125 39.8235C8.78125 38.0588 10.1544 36.647 11.8708 36.647H24.1146V43H24.0001Z" stroke="#39404D" stroke-miterlimit="10"/>
<path d="M36.2438 25.5883H30.2935H24V32.0589V36.5295H30.2935V32.0589H36.2438C37.9602 32.0589 39.3333 30.6472 39.3333 28.8824C39.3333 27.1177 37.9602 25.5883 36.2438 25.5883Z" stroke="#39404D" stroke-miterlimit="10"/>
<path d="M24 43H43.9104C45.6269 43 47 41.5882 47 39.8235C47 38.0588 45.6269 36.647 43.9104 36.647H24V43Z" stroke="#39404D" stroke-miterlimit="10"/>
<path d="M5.00497 40.2942C7.21686 40.2942 9.00995 38.4506 9.00995 36.1765C9.00995 33.9024 7.21686 32.0588 5.00497 32.0588C2.79309 32.0588 1 33.9024 1 36.1765C1 38.4506 2.79309 40.2942 5.00497 40.2942Z" stroke="#39404D" stroke-miterlimit="10"/>
<path d="M21.711 13.2353C23.9229 13.2353 25.716 11.3918 25.716 9.11766C25.716 6.84354 23.9229 5 21.711 5C19.4991 5 17.7061 6.84354 17.7061 9.11766C17.7061 11.3918 19.4991 13.2353 21.711 13.2353Z" stroke="#39404D" stroke-miterlimit="10"/>
<path d="M23.9997 29.5882H16.333V36.5294H23.9997V29.5882Z" stroke="#39404D" stroke-miterlimit="10"/>
<path d="M16.333 29.5883V18.4118C16.333 15.5882 18.6216 13.2353 21.3678 13.2353C23.0842 13.2353 24.6862 14.0588 25.7161 15.4706L33.0395 25.5883" stroke="#39404D" stroke-miterlimit="10"/>
<path d="M22.1689 19.8237L26.5172 25.5885" stroke="#39404D" stroke-miterlimit="10"/>
</svg>
