<svg width="48" height="48" viewBox="0 0 48 48" fill="none" xmlns="http://www.w3.org/2000/svg">
<path d="M2.81445 22.0138C2.81445 10.2621 12.1033 0.827576 23.6737 0.827576C35.2441 0.827576 44.533 10.2621 44.533 22.0138" stroke="#39404D" stroke-miterlimit="10"/>
<path d="M8.0293 22.0137C8.0293 13.2413 15.0367 6.12408 23.6737 6.12408C32.3108 6.12408 39.3182 13.2413 39.3182 22.0137" stroke="#39404D" stroke-miterlimit="10"/>
<path d="M13.2441 22.0137C13.2441 16.2206 17.9701 11.4206 23.6738 11.4206C29.3775 11.4206 34.1034 16.2206 34.1034 22.0137" stroke="#39404D" stroke-miterlimit="10"/>
<path d="M23.6738 40.2208C23.6738 43.6967 26.4442 46.345 29.7035 46.345C32.9627 46.345 35.7331 43.5312 35.7331 40.2208" stroke="#39404D" stroke-miterlimit="10"/>
<path d="M18.9482 22.0137C18.9482 19.3654 21.0668 17.2137 23.6742 17.2137C26.2816 17.2137 28.4001 19.3654 28.4001 22.0137" stroke="#39404D" stroke-miterlimit="10"/>
<path d="M23.6742 40.2208C22.2075 40.2208 21.0668 39.2277 20.9038 37.7381L18.9482 22.0139H28.4001L26.4445 37.7381C26.2816 39.0622 25.1408 40.2208 23.6742 40.2208Z" stroke="#39404D" stroke-miterlimit="10"/>
</svg>
