<svg width="48" height="48" viewBox="0 0 48 48" fill="none" xmlns="http://www.w3.org/2000/svg">
<path d="M17.7 30.0113L11 36.7658C8.9 38.8829 5.8 39.5885 3 38.4796L2 38.0764L29.2 10.7561C30.2 9.74797 31.9 9.74797 33 10.7561C34 11.7642 34 13.478 33 14.587L22 25.6764" stroke="#39404D" stroke-miterlimit="10"/>
<path d="M9.39981 30.8178L8.7998 30.2129C7.2998 28.7007 7.2998 26.2812 8.7998 24.8699L14.7998 18.8211C16.4998 17.1073 18.7998 15.8975 21.1998 15.3935L25.4998 14.4861" stroke="#39404D" stroke-miterlimit="10"/>
<path d="M31.5 16.0992C36.2 19.6277 41 24.1643 46 24.6683C45.7 28.096 44.1 34.8504 44.1 34.8504C44.1 34.8504 41.5 34.4472 38.9 34.9512C35.4 35.5561 31.8 36.4634 25.4 32.4309C21.8 30.1122 14.5 30.6163 14.5 27.3903C14.5 24.9708 17.3 24.5675 20.1 25.2732C22.9 25.9789 27.9 26.3821 31.7 23.4586" stroke="#39404D" stroke-miterlimit="10"/>
</svg>
