<svg width="48" height="48" viewBox="0 0 48 48" fill="none" xmlns="http://www.w3.org/2000/svg">
<path d="M16.5 19.5C16.5 23.2215 16.4959 26.5179 15.8512 28.8899C15.5315 30.0661 15.067 30.961 14.413 31.5615C13.7706 32.1513 12.8988 32.5 11.6695 32.5C5.53092 32.5 0.5 26.687 0.5 19.5C0.5 15.8943 1.51971 12.6377 3.41432 10.2932C5.29983 7.95998 8.07397 6.5 11.6695 6.5C12.8988 6.5 13.7706 6.84866 14.413 7.43852C15.067 8.03903 15.5315 8.93388 15.8512 10.1101C16.4959 12.4821 16.5 15.7785 16.5 19.5Z" stroke="#39404D" stroke-miterlimit="10"/>
<path d="M9 26C12.3 26 15 23.0455 15 19.5C15 15.9545 12.9 13 9 13" stroke="#39404D" stroke-miterlimit="10"/>
<path d="M17 19C19.2222 19 21 20.7751 21 22.9941V44" stroke="#39404D" stroke-miterlimit="10"/>
<mask id="path-4-inside-1" fill="white">
<path d="M4 9C4 8.85044 6.85714 3.46638 9.57143 3.01771C11.8571 2.71859 13 6.30797 13 6.30797"/>
</mask>
<path d="M9.57143 3.01771L9.44167 2.02616L9.42497 2.02835L9.40834 2.0311L9.57143 3.01771ZM5 9C5 9.14692 4.9653 9.25798 4.96377 9.26333C4.95479 9.29484 4.94658 9.31683 4.94421 9.32313C4.9389 9.33726 4.93727 9.33984 4.94397 9.32501C4.95612 9.29815 4.97994 9.24861 5.01758 9.17533C5.09166 9.03112 5.20515 8.82237 5.35299 8.5685C5.64887 8.06042 6.07077 7.3914 6.57111 6.71666C7.07445 6.03787 7.63854 5.37869 8.21551 4.87222C8.80802 4.3521 9.32532 4.07196 9.73452 4.00432L9.40834 2.0311C8.46039 2.18779 7.60269 2.74891 6.8961 3.36917C6.17396 4.00307 5.51483 4.78337 4.96461 5.52538C4.41138 6.27144 3.94935 7.00452 3.62469 7.56204C3.46226 7.84097 3.33133 8.08089 3.23856 8.26149C3.19278 8.35062 3.15256 8.43253 3.12153 8.50119C3.10664 8.53411 3.08864 8.57547 3.07234 8.61878C3.06449 8.63966 3.05214 8.67384 3.04039 8.71506C3.0361 8.73011 3 8.84841 3 9H5ZM9.70119 4.00925C10.233 3.93966 10.7771 4.30214 11.31 5.10411C11.5523 5.46874 11.7395 5.85052 11.8672 6.14723C11.9303 6.29381 11.9771 6.41541 12.0074 6.49808C12.0225 6.53932 12.0333 6.57059 12.04 6.59012C12.0433 6.59988 12.0456 6.60668 12.0468 6.6103C12.0474 6.61211 12.0477 6.61312 12.0478 6.61331C12.0478 6.6134 12.0478 6.61329 12.0476 6.61296C12.0476 6.6128 12.0475 6.61259 12.0474 6.61232C12.0474 6.61219 12.0473 6.61195 12.0473 6.61188C12.0472 6.61163 12.0471 6.61136 13 6.30797C13.9529 6.00458 13.9528 6.00428 13.9527 6.00397C13.9526 6.00385 13.9525 6.00353 13.9525 6.00329C13.9523 6.0028 13.9521 6.00226 13.9519 6.00167C13.9516 6.00047 13.9511 5.99906 13.9506 5.99743C13.9495 5.99417 13.9482 5.99004 13.9465 5.98506C13.9433 5.97512 13.9388 5.9618 13.9332 5.94534C13.922 5.91244 13.9061 5.86689 13.8855 5.81057C13.8443 5.69811 13.784 5.54162 13.7042 5.35638C13.5462 4.98942 13.3049 4.49256 12.9757 3.99723C12.3658 3.07929 11.1956 1.79664 9.44167 2.02616L9.70119 4.00925Z" fill="#39404D" mask="url(#path-4-inside-1)"/>
<path d="M36.3308 32.5C35.1015 32.5 34.2297 32.1513 33.5873 31.5615C32.9333 30.961 32.4689 30.0661 32.1492 28.8899C31.5044 26.5179 31.5004 23.2215 31.5004 19.5C31.5004 19.3275 31.5003 19.1559 31.5002 18.9853C31.4988 15.4702 31.4976 12.3695 32.096 10.1068C32.4068 8.93168 32.8665 8.03917 33.5249 7.44002C34.1723 6.85082 35.0618 6.5 36.3308 6.5C39.9262 6.5 42.7003 7.95997 44.5857 10.2932C46.4803 12.6377 47.5 15.8943 47.5 19.5C47.5 26.687 42.4692 32.5 36.3308 32.5Z" stroke="#39404D" stroke-miterlimit="10"/>
<path d="M38 26C35.25 26 33 23.0455 33 19.5C33 15.9545 34.75 13 38 13" stroke="#39404D" stroke-miterlimit="10"/>
<path d="M31 19C28.7778 19 27 20.7751 27 22.9941V44" stroke="#39404D" stroke-miterlimit="10"/>
<mask id="path-9-inside-2" fill="white">
<path d="M44 9C44 8.85044 41.1429 3.46638 38.4286 3.01771C36.1429 2.71859 35 6.30797 35 6.30797"/>
</mask>
<path d="M38.4286 3.01771L38.5917 2.0311L38.575 2.02835L38.5583 2.02616L38.4286 3.01771ZM45 9C45 8.84841 44.9639 8.73011 44.9596 8.71506C44.9479 8.67384 44.9355 8.63966 44.9277 8.61878C44.9114 8.57547 44.8934 8.53411 44.8785 8.50119C44.8474 8.43253 44.8072 8.35062 44.7614 8.26149C44.6687 8.08089 44.5377 7.84097 44.3753 7.56204C44.0507 7.00452 43.5886 6.27144 43.0354 5.52538C42.4852 4.78338 41.826 4.00307 41.1039 3.36917C40.3973 2.74891 39.5396 2.18779 38.5917 2.0311L38.2655 4.00432C38.6747 4.07196 39.192 4.3521 39.7845 4.87222C40.3615 5.37869 40.9255 6.03787 41.4289 6.71666C41.9292 7.3914 42.3511 8.06042 42.647 8.5685C42.7948 8.82237 42.9083 9.03112 42.9824 9.17533C43.0201 9.24861 43.0439 9.29815 43.056 9.32501C43.0627 9.33984 43.0611 9.33726 43.0558 9.32313C43.0534 9.31683 43.0452 9.29484 43.0362 9.26333C43.0347 9.25798 43 9.14692 43 9H45ZM38.5583 2.02616C36.8044 1.79664 35.6342 3.07929 35.0243 3.99723C34.6951 4.49256 34.4538 4.98942 34.2958 5.35638C34.216 5.54162 34.1557 5.69811 34.1145 5.81057C34.0939 5.86689 34.078 5.91244 34.0668 5.94534C34.0612 5.9618 34.0567 5.97512 34.0535 5.98506C34.0518 5.99004 34.0505 5.99417 34.0494 5.99743C34.0489 5.99906 34.0484 6.00047 34.0481 6.00166C34.0479 6.00226 34.0477 6.0028 34.0475 6.00329C34.0475 6.00353 34.0474 6.00385 34.0473 6.00397C34.0472 6.00428 34.0471 6.00458 35 6.30797C35.9529 6.61136 35.9528 6.61163 35.9527 6.61188C35.9527 6.61195 35.9526 6.61219 35.9526 6.61232C35.9525 6.61259 35.9524 6.6128 35.9524 6.61297C35.9522 6.61329 35.9522 6.6134 35.9522 6.61331C35.9523 6.61312 35.9526 6.61211 35.9532 6.6103C35.9544 6.60668 35.9567 6.59988 35.96 6.59012C35.9667 6.57059 35.9775 6.53932 35.9926 6.49808C36.0229 6.41541 36.0697 6.29382 36.1328 6.14723C36.2605 5.85052 36.4477 5.46874 36.69 5.10411C37.2229 4.30214 37.767 3.93966 38.2988 4.00925L38.5583 2.02616Z" fill="#39404D" mask="url(#path-9-inside-2)"/>
</svg>
